<svg preserveAspectRatio="none" width="100%" height="100%" overflow="visible" style="display: block;" viewBox="0 0 20 20" fill="none" xmlns="http://www.w3.org/2000/svg">
<g id="Frame">
<path id="Vector" d="M5.7144 8.57135C7.29236 8.57135 8.57154 7.29217 8.57154 5.71421C8.57154 4.13625 7.29236 2.85707 5.7144 2.85707C4.13644 2.85707 2.85726 4.13625 2.85726 5.71421C2.85726 7.29217 4.13644 8.57135 5.7144 8.57135Z" stroke="var(--stroke-0, #0B0E14)" stroke-width="1.25" stroke-linecap="round" stroke-linejoin="round"/>
<path id="Vector_2" d="M14.2862 17.1427C15.8641 17.1427 17.1433 15.8635 17.1433 14.2856C17.1433 12.7076 15.8641 11.4284 14.2862 11.4284C12.7082 11.4284 11.429 12.7076 11.429 14.2856C11.429 15.8635 12.7082 17.1427 14.2862 17.1427Z" stroke="var(--stroke-0, #0B0E14)" stroke-width="1.25" stroke-linecap="round" stroke-linejoin="round"/>
<path id="Vector_3" d="M10.0008 18.3333C5.39845 18.3333 1.66748 14.6024 1.66748 10L4.44524 11.3889" stroke="var(--stroke-0, #0B0E14)" stroke-width="1.25" stroke-linecap="round" stroke-linejoin="round"/>
<path id="Vector_4" d="M10.0008 1.66667C14.6032 1.66667 18.3341 5.39762 18.3341 10L15.5564 8.61112" stroke="var(--stroke-0, #0B0E14)" stroke-width="1.25" stroke-linecap="round" stroke-linejoin="round"/>
</g>
</svg>
