<svg preserveAspectRatio="none" width="100%" height="100%" overflow="visible" style="display: block;" viewBox="0 0 20 20" fill="none" xmlns="http://www.w3.org/2000/svg">
<g id="Frame">
<path id="Vector" d="M10 18.3333C13.4311 18.3333 16.2499 15.6142 16.2499 12.1242C16.2499 11.2674 16.2064 10.349 15.7315 8.9215C15.2565 7.49408 15.1609 7.30983 14.6587 6.42829C14.4442 8.22725 13.2962 8.977 13.0046 9.20108C13.0046 8.96796 12.3102 6.38996 11.2573 4.84746C10.2237 3.33333 8.81808 2.33997 7.99388 1.66667C7.99388 2.94574 7.63412 4.84746 7.11892 5.81642C6.60371 6.78537 6.50696 6.82067 5.86342 7.54175C5.21992 8.26283 4.92454 8.48554 4.38642 9.36046C3.84832 10.2354 3.75 11.4007 3.75 12.2575C3.75 15.7476 6.56887 18.3333 10 18.3333Z" stroke="var(--stroke-0, #0B0E14)" stroke-width="1.25" stroke-linejoin="round"/>
</g>
</svg>
