<svg preserveAspectRatio="none" width="100%" height="100%" overflow="visible" style="display: block;" viewBox="0 0 28 28" fill="none" xmlns="http://www.w3.org/2000/svg">
<g id="Group">
<path id="Vector" fill-rule="evenodd" clip-rule="evenodd" d="M14 26.6C20.9588 26.6 26.6 20.9588 26.6 14C26.6 7.04121 20.9588 1.4 14 1.4C7.04125 1.4 1.40004 7.04121 1.40004 14C1.40004 20.9588 7.04125 26.6 14 26.6ZM14 28C21.732 28 28 21.732 28 14C28 6.26802 21.732 0 14 0C6.26806 0 4.06901e-05 6.26802 4.06901e-05 14C4.06901e-05 21.732 6.26806 28 14 28Z" fill="var(--fill-0, #EAAC08)"/>
<path id="Vector_2" d="M13.9998 25.704C20.4637 25.704 25.7038 20.4639 25.7038 14C25.7038 7.53606 20.4637 2.29598 13.9998 2.29598C7.53585 2.29598 2.29578 7.53606 2.29578 14C2.29578 20.4639 7.53585 25.704 13.9998 25.704Z" fill="url(#paint0_linear_0_4)"/>
<path id="Vector_3" d="M2.58621 16.6013L7.73422 13.6746L2.37325 12.6488C2.66324 10.126 3.75537 7.84727 5.38812 6.07409C6.68081 6.78603 7.97353 7.49819 9.26621 8.21027C10.8471 9.08124 12.4281 9.95217 14.0089 10.8226L20.7499 14.5342L21.0023 14.6736C21.2769 14.8838 21.4428 15.241 21.4299 15.6269C22.3623 15.942 22.7714 17.1742 22.5503 18.2362C22.1688 17.5753 21.5551 17.1187 20.8549 16.985C19.7916 17.0156 18.732 16.8303 17.7259 16.4406C16.2498 16.2286 15.0704 16.5228 14.0108 17.0996C12.7088 17.8094 11.2658 19.1635 9.96079 20.3882C9.55172 20.7721 9.15618 21.1433 8.78277 21.4779C8.07722 22.0598 7.14906 22.478 6.18892 22.7162C5.8055 22.3723 5.44487 22.0035 5.10961 21.6124L8.34051 18.8208C8.49166 18.689 8.52111 18.4444 8.40316 18.2744C8.28709 18.1044 8.06777 18.072 7.91661 18.2038L4.6435 21.0323C4.20828 20.4542 3.8254 19.8344 3.5019 19.18L4.32137 18.6087C4.48355 18.4941 4.53329 18.2554 4.43192 18.072C4.33059 17.8904 4.11498 17.835 3.95281 17.9478L3.18529 18.4828C2.93492 17.8794 2.73358 17.2506 2.58621 16.6013Z" fill="var(--fill-0, #CA8404)"/>
<path id="Vector_4" d="M24.8407 9.58124C25.1584 10.3599 25.3947 11.1803 25.5389 12.0322C25.3649 12.0633 25.1909 12.0944 25.017 12.1254L25.0165 12.1255C23.2825 12.4352 21.5489 12.7449 19.7415 13.111L13.3506 9.62871L21.0535 5.4319C21.2514 5.32406 21.4432 5.22212 21.6307 5.12556C22.8114 6.14175 23.787 7.38954 24.4871 8.79838L23.3349 9.00785C23.1358 9.04224 22.9995 9.25618 23.0308 9.48538C23.0603 9.71463 23.2464 9.86938 23.4455 9.83499L24.8407 9.58124Z" fill="var(--fill-0, #CA8404)"/>
<path id="Vector_5" fill-rule="evenodd" clip-rule="evenodd" d="M13.9991 25.704C20.4631 25.704 25.7031 20.464 25.7031 14C25.7031 7.53604 20.4631 2.29601 13.9991 2.29601C7.53515 2.29601 2.29513 7.53604 2.29513 14C2.29513 20.464 7.53515 25.704 13.9991 25.704ZM13.9991 26.6C20.9579 26.6 26.5991 20.9588 26.5991 14C26.5991 7.04122 20.9579 1.40001 13.9991 1.40001C7.04034 1.40001 1.39913 7.04122 1.39913 14C1.39913 20.9588 7.04034 26.6 13.9991 26.6Z" fill="var(--fill-0, #EAAC08)"/>
<path id="Vector_6" fill-rule="evenodd" clip-rule="evenodd" d="M13.9991 25.704C20.4631 25.704 25.7031 20.464 25.7031 14C25.7031 7.53604 20.4631 2.29601 13.9991 2.29601C7.53515 2.29601 2.29513 7.53604 2.29513 14C2.29513 20.464 7.53515 25.704 13.9991 25.704ZM13.9991 26.6C20.9579 26.6 26.5991 20.9588 26.5991 14C26.5991 7.04122 20.9579 1.40001 13.9991 1.40001C7.04034 1.40001 1.39913 7.04122 1.39913 14C1.39913 20.9588 7.04034 26.6 13.9991 26.6Z" fill="url(#paint1_linear_0_4)"/>
<path id="Vector_7" fill-rule="evenodd" clip-rule="evenodd" d="M13.9991 25.704C20.4631 25.704 25.7031 20.464 25.7031 14C25.7031 7.53604 20.4631 2.29601 13.9991 2.29601C7.53515 2.29601 2.29513 7.53604 2.29513 14C2.29513 20.464 7.53515 25.704 13.9991 25.704ZM13.9991 26.6C20.9579 26.6 26.5991 20.9588 26.5991 14C26.5991 7.04122 20.9579 1.40001 13.9991 1.40001C7.04034 1.40001 1.39913 7.04122 1.39913 14C1.39913 20.9588 7.04034 26.6 13.9991 26.6Z" fill="url(#paint2_linear_0_4)"/>
<path id="Vector_8" d="M13.0367 8.39888V9.17115C12.5674 9.51778 12.092 9.80172 11.6115 10.0234C11.0918 10.2486 10.5716 10.3617 10.0519 10.3617C10.0194 10.3617 9.98636 10.3617 9.95389 10.3606V10.3472C9.94943 10.3472 9.94436 10.3472 9.93989 10.3466V10.3332C9.93543 10.3332 9.93036 10.3332 9.92589 10.3326V10.3192C9.92143 10.3192 9.91636 10.3192 9.91189 10.3186V10.3052C9.90743 10.3052 9.90236 10.3052 9.89789 10.3046V10.2912C9.89343 10.2912 9.88836 10.2912 9.88389 10.2906V10.2772C9.87943 10.2772 9.87436 10.2772 9.86989 10.2766V10.2632C9.86543 10.2632 9.86036 10.2632 9.85589 10.2626V10.2492C9.85143 10.2492 9.84636 10.2492 9.84189 10.2486V10.2352C9.83743 10.2352 9.83236 10.2352 9.82789 10.2346V10.2212C9.82343 10.2212 9.81836 10.2212 9.81389 10.2206V10.2072C9.80943 10.2072 9.80436 10.2072 9.79989 10.2066V10.1932C9.79543 10.1932 9.79036 10.1932 9.78589 10.1926V10.1792C9.78143 10.1792 9.77636 10.1792 9.77189 10.1786V10.1652C9.76743 10.1652 9.76236 10.1652 9.75789 10.1646V10.1512C9.75343 10.1512 9.74836 10.1512 9.74389 10.1506V10.1372C9.73943 10.1372 9.73436 10.1372 9.72989 10.1366V10.1232C9.72543 10.1232 9.72036 10.1232 9.71589 10.1226V10.1092C9.71143 10.1092 9.70636 10.1092 9.70189 10.1086V10.0952C9.69743 10.0952 9.69236 10.0952 9.68789 10.0946V10.0812C9.68343 10.0812 9.67836 10.0812 9.67389 10.0806V10.0672C9.66943 10.0672 9.66436 10.0672 9.65989 10.0666V10.0532C9.65543 10.0532 9.65036 10.0532 9.64589 10.0526V10.0392C9.64143 10.0392 9.63636 10.0392 9.63189 10.0386V10.0252C9.62743 10.0252 9.62236 10.0252 9.61789 10.0246V10.0112C9.61343 10.0112 9.60836 10.0112 9.60389 10.0106V9.99715C9.59943 9.99715 9.59436 9.99715 9.58989 9.99658V9.98315C9.58543 9.98315 9.58036 9.98315 9.57589 9.98258V9.96915C9.57143 9.96915 9.56636 9.96915 9.5619 9.96858V9.95515C9.55743 9.95515 9.55236 9.95515 9.54789 9.95458V9.94115C9.54343 9.94115 9.53836 9.94115 9.53389 9.94058V9.92658C9.56189 9.92768 9.58989 9.92768 9.61789 9.92768C10.1376 9.92768 10.6578 9.81458 11.1775 9.58944C11.7302 9.33464 12.2751 8.99755 12.8127 8.57755C12.8877 8.51875 12.9628 8.45938 13.0367 8.39888Z" fill="var(--fill-0, #85490E)"/>
<path id="Vector_9" d="M15.3302 6.314V22.05H13.471V22.036H13.457V22.022H13.443V22.008H13.429V21.994H13.415V21.98H13.401V21.966H13.387V21.952H13.373V21.938H13.359V21.924H13.345V21.91H13.331V21.896H13.317V21.882H13.303V21.868H13.289V21.854H13.275V21.84H13.261V21.826H13.247V21.812H13.233V21.798H13.219V21.784H13.205V21.77H13.191V21.756H13.177V21.742H13.163V21.728H13.149V21.714H13.135V21.7H13.121V21.686H13.107V21.672H13.093V21.658H13.079V21.644H13.065V21.63H13.051V21.616H14.8962V5.894H14.9102V5.908H14.9242V5.922H14.9382V5.936H14.9522V5.95H14.9662V5.964H14.9802V5.978H14.9942V5.992H15.0082V6.006H15.0222V6.02H15.0362V6.034H15.0502V6.048H15.0642V6.062H15.0782V6.076H15.0922V6.09H15.1062V6.104H15.1202V6.118H15.1342V6.132H15.1482V6.146H15.1622V6.16H15.1762V6.174H15.1902V6.188H15.2042V6.202H15.2182V6.216H15.2322V6.23H15.2462V6.244H15.2602V6.258H15.2742V6.272H15.2882V6.286H15.3022V6.3H15.3162V6.314H15.3302Z" fill="var(--fill-0, #85490E)"/>
<path id="Vector_10" d="M14.8962 5.88001V21.616H13.037V9.17115C13.0415 9.16778 13.0326 9.17447 13.037 9.17115V8.39887C12.9631 8.45938 12.8881 8.51875 12.813 8.57755C12.2754 8.99755 11.7306 9.33464 11.1778 9.58944C10.6582 9.81458 10.1379 9.92767 9.61822 9.92767C9.59022 9.92767 9.56222 9.92767 9.53422 9.92658C9.52976 9.92715 9.52469 9.92658 9.52022 9.92658V8.19561C9.53982 8.19727 9.55999 8.19727 9.58016 8.19727C9.88085 8.19727 10.2348 8.09144 10.6402 7.88087C11.0737 7.65635 11.5217 7.36401 11.9842 7.00395C12.4474 6.64441 12.8506 6.26978 13.1938 5.88001H14.8962Z" fill="url(#paint3_linear_0_4)"/>
</g>
<defs>
<linearGradient id="paint0_linear_0_4" x1="13.9998" y1="2.29598" x2="13.9998" y2="25.704" gradientUnits="userSpaceOnUse">
<stop stop-color="#CA8404"/>
<stop offset="1" stop-color="#A15D07"/>
</linearGradient>
<linearGradient id="paint1_linear_0_4" x1="26.5991" y1="1.40001" x2="1.39913" y2="26.6" gradientUnits="userSpaceOnUse">
<stop stop-color="#44403C"/>
<stop offset="0.4" stop-color="#44403C" stop-opacity="0"/>
</linearGradient>
<linearGradient id="paint2_linear_0_4" x1="26.5991" y1="1.40001" x2="1.39913" y2="26.6" gradientUnits="userSpaceOnUse">
<stop offset="0.6" stop-color="#F5F5F4" stop-opacity="0"/>
<stop offset="1" stop-color="#F5F5F4"/>
</linearGradient>
<linearGradient id="paint3_linear_0_4" x1="12.2082" y1="5.88001" x2="12.2082" y2="21.616" gradientUnits="userSpaceOnUse">
<stop stop-color="#FEF7C3"/>
<stop offset="1" stop-color="#FDDA47"/>
</linearGradient>
</defs>
</svg>
