<svg preserveAspectRatio="none" width="100%" height="100%" overflow="visible" style="display: block;" viewBox="0 0 28 28" fill="none" xmlns="http://www.w3.org/2000/svg">
<g id="Group">
<path id="Vector" d="M14 28C21.732 28 28 21.732 28 14C28 6.26801 21.732 0 14 0C6.26801 0 0 6.26801 0 14C0 21.732 6.26801 28 14 28Z" fill="var(--fill-0, #26A17B)"/>
<path id="Vector_2" fill-rule="evenodd" clip-rule="evenodd" d="M15.6813 15.2101V15.2084C15.585 15.2154 15.0889 15.2451 13.982 15.2451C13.0983 15.2451 12.4762 15.2189 12.2574 15.2084V15.211C8.85542 15.0614 6.31617 14.469 6.31617 13.7602C6.31617 13.0524 8.85542 12.46 12.2574 12.3077V14.6212C12.4797 14.637 13.1167 14.6746 13.9969 14.6746C15.053 14.6746 15.5824 14.6309 15.6813 14.6221V12.3095C19.0763 12.4609 21.6094 13.0532 21.6094 13.7602C21.6094 14.469 19.0763 15.0596 15.6813 15.2101ZM15.6813 12.0689V9.99862H20.4185V6.84162H7.52017V9.99862H12.2574V12.068C8.40742 12.2447 5.51204 13.0077 5.51204 13.9212C5.51204 14.8347 8.40742 15.5969 12.2574 15.7745V22.4087H15.6813V15.7727C19.5252 15.596 22.4135 14.8339 22.4135 13.9212C22.4135 13.0086 19.5252 12.2465 15.6813 12.0689Z" fill="var(--fill-0, white)"/>
</g>
</svg>
