<svg width="24" height="24" viewBox="0 0 24 24" fill="none" xmlns="http://www.w3.org/2000/svg">
<rect width="24" height="24" fill="black"/>
<g id="Homepage">
<rect width="1440" height="6839" transform="translate(-402.5 -5547)" fill="#F5F6F8"/>
<g id="partners">
<mask id="path-1-inside-1_4_2" fill="white">
<path d="M-402.5 -52H1037.5V156H-402.5V-52Z"/>
</mask>
<path d="M-402.5 -52H1037.5V156H-402.5V-52Z" fill="#EBEEF3"/>
<path d="M1037.5 156V155H-402.5V156V157H1037.5V156Z" fill="#ECEEF2" mask="url(#path-1-inside-1_4_2)"/>
<g id="prow">
<g id="p">
<path d="M12 -11.5H70C82.9787 -11.5 93.5 -0.978691 93.5 12C93.5 24.9787 82.9787 35.5 70 35.5H12C-0.978691 35.5 -11.5 24.9787 -11.5 12C-11.5 -0.978691 -0.978691 -11.5 12 -11.5Z" fill="white"/>
<path d="M12 -11.5H70C82.9787 -11.5 93.5 -0.978691 93.5 12C93.5 24.9787 82.9787 35.5 70 35.5H12C-0.978691 35.5 -11.5 24.9787 -11.5 12C-11.5 -0.978691 -0.978691 -11.5 12 -11.5Z" stroke="#ECEEF2"/>
<g id="Coin Logo">
<g id="Binance Coin (BNB)">
<path id="Binance Coin (BNB)_2" d="M23.6383 14.9029C22.0356 21.3315 15.5244 25.2438 9.09503 23.6407C2.66833 22.0381 -1.24401 15.5265 0.359382 9.09837C1.96137 2.66903 8.47253 -1.24361 14.8999 0.359081C21.3289 1.96177 25.241 8.47405 23.6381 14.903L23.6382 14.9029H23.6383Z" fill="#F3BA2F"/>
<path id="Binance Coin (BNB)_3" fill-rule="evenodd" clip-rule="evenodd" d="M12 7.616L8.89267 10.7233L8.89274 10.7232L7.0848 8.9152L12 4L16.9168 8.91667L15.1088 10.7247L12 7.616ZM5.80806 10.1917L4 12L5.80794 13.8077L7.616 11.9996L5.80806 10.1917ZM8.89267 13.2769L12 16.384L15.1087 13.2754L16.9177 15.0824L16.9168 15.0834L12 20L7.0848 15.0848L7.08224 15.0822L8.89267 13.2769ZM18.1921 10.1927L16.384 12.0008L18.192 13.8087L20 12.0006L18.1921 10.1927Z" fill="white"/>
<path id="Binance Coin (BNB)_4" d="M13.8339 11.9992H13.8346L12.0001 10.1646L10.6442 11.5201L10.4884 11.676L10.1671 11.9973L10.1646 11.9998L10.1671 12.0024L12.0001 13.8357L13.8348 12.0011L13.8357 12.0001L13.834 11.9992" fill="white"/>
</g>
</g>
</g>
</g>
</g>
</g>
</svg>
