<svg width="24" height="24" viewBox="0 0 24 24" fill="none" xmlns="http://www.w3.org/2000/svg">
<rect width="24" height="24" fill="black"/>
<g id="Homepage">
<rect width="1440" height="6839" transform="translate(-275.5 -5547)" fill="#F5F6F8"/>
<g id="partners">
<mask id="path-1-inside-1_4_2" fill="white">
<path d="M-275.5 -52H1164.5V156H-275.5V-52Z"/>
</mask>
<path d="M-275.5 -52H1164.5V156H-275.5V-52Z" fill="#EBEEF3"/>
<path d="M1164.5 156V155H-275.5V156V157H1164.5V156Z" fill="#ECEEF2" mask="url(#path-1-inside-1_4_2)"/>
<g id="prow" clip-path="url(#clip0_4_2)">
<g id="p">
<path d="M12 -11.5H77C89.9787 -11.5 100.5 -0.978691 100.5 12C100.5 24.9787 89.9787 35.5 77 35.5H12C-0.97869 35.5 -11.5 24.9787 -11.5 12C-11.5 -0.978691 -0.978691 -11.5 12 -11.5Z" fill="white"/>
<path d="M12 -11.5H77C89.9787 -11.5 100.5 -0.978691 100.5 12C100.5 24.9787 89.9787 35.5 77 35.5H12C-0.97869 35.5 -11.5 24.9787 -11.5 12C-11.5 -0.978691 -0.978691 -11.5 12 -11.5Z" stroke="#ECEEF2"/>
<g id="Clip path group">
<mask id="mask0_4_2" style="mask-type:luminance" maskUnits="userSpaceOnUse" x="0" y="0" width="24" height="24">
<g id="clip0_267_65">
<path id="Vector" d="M24 0H0V24H24V0Z" fill="white"/>
</g>
</mask>
<g mask="url(#mask0_4_2)">
<g id="Group">
<path id="Vector_2" fill-rule="evenodd" clip-rule="evenodd" d="M12 22.8C17.9647 22.8 22.8 17.9647 22.8 12C22.8 6.03533 17.9647 1.2 12 1.2C6.03533 1.2 1.2 6.03533 1.2 12C1.2 17.9647 6.03533 22.8 12 22.8ZM12 24C18.6274 24 24 18.6274 24 12C24 5.37259 18.6274 0 12 0C5.37259 0 0 5.37259 0 12C0 18.6274 5.37259 24 12 24Z" fill="#EAAC08"/>
<path id="Vector_3" d="M11.9998 22.0318C17.5403 22.0318 22.0318 17.5403 22.0318 11.9998C22.0318 6.45926 17.5403 1.96777 11.9998 1.96777C6.45926 1.96777 1.96777 6.45926 1.96777 11.9998C1.96777 17.5403 6.45926 22.0318 11.9998 22.0318Z" fill="url(#paint0_linear_4_2)"/>
<path id="Vector_4" d="M2.21672 14.2299L6.62929 11.7213L2.03418 10.842C2.28274 8.67964 3.21886 6.72642 4.61836 5.20654C5.72637 5.81678 6.83442 6.42721 7.94243 7.03756C9.29749 7.78411 10.6526 8.53062 12.0076 9.27668L17.7856 12.4581L18.002 12.5776C18.2373 12.7577 18.3795 13.0639 18.3684 13.3946C19.1677 13.6648 19.5183 14.7209 19.3288 15.6312C19.0018 15.0647 18.4758 14.6733 17.8756 14.5588C16.9642 14.585 16.056 14.4261 15.1936 14.0921C13.9283 13.9104 12.9174 14.1626 12.0092 14.657C10.8932 15.2654 9.65637 16.426 8.53778 17.4758C8.18716 17.8048 7.84812 18.123 7.52806 18.4098C6.92329 18.9086 6.12773 19.267 5.30476 19.4712C4.97611 19.1764 4.66699 18.8603 4.37963 18.5251L7.14897 16.1323C7.27853 16.0193 7.30377 15.8097 7.20267 15.664C7.10318 15.5183 6.91519 15.4904 6.78563 15.6034L3.98011 18.0279C3.60706 17.5323 3.27888 17.0011 3.00159 16.4402L3.704 15.9505C3.84301 15.8523 3.88564 15.6476 3.79876 15.4904C3.7119 15.3348 3.52709 15.2874 3.38809 15.384L2.73021 15.8426C2.51561 15.3254 2.34303 14.7864 2.21672 14.2299Z" fill="#CA8404"/>
<path id="Vector_5" d="M21.2925 8.2127C21.5648 8.88013 21.7673 9.58337 21.8909 10.3135C21.7418 10.3402 21.5927 10.3668 21.4436 10.3934L21.4432 10.3935C19.9569 10.659 18.4709 10.9244 16.9217 11.2382L11.4438 8.25339L18.0463 4.65613C18.2159 4.56369 18.3804 4.47632 18.541 4.39355C19.5531 5.26457 20.3893 6.3341 20.9894 7.54168L20.0018 7.72123C19.8312 7.7507 19.7143 7.93408 19.7412 8.13054C19.7664 8.32704 19.926 8.45968 20.0966 8.4302L21.2925 8.2127Z" fill="#CA8404"/>
<path id="Vector_6" fill-rule="evenodd" clip-rule="evenodd" d="M12.0002 22.0322C17.5407 22.0322 22.0322 17.5407 22.0322 12.0002C22.0322 6.45964 17.5407 1.9682 12.0002 1.9682C6.45964 1.9682 1.9682 6.45964 1.9682 12.0002C1.9682 17.5407 6.45964 22.0322 12.0002 22.0322ZM12.0002 22.8002C17.9649 22.8002 22.8002 17.9649 22.8002 12.0002C22.8002 6.03552 17.9649 1.2002 12.0002 1.2002C6.03552 1.2002 1.2002 6.03552 1.2002 12.0002C1.2002 17.9649 6.03552 22.8002 12.0002 22.8002Z" fill="#EAAC08"/>
<path id="Vector_7" fill-rule="evenodd" clip-rule="evenodd" d="M12.0002 22.0322C17.5407 22.0322 22.0322 17.5407 22.0322 12.0002C22.0322 6.45964 17.5407 1.9682 12.0002 1.9682C6.45964 1.9682 1.9682 6.45964 1.9682 12.0002C1.9682 17.5407 6.45964 22.0322 12.0002 22.0322ZM12.0002 22.8002C17.9649 22.8002 22.8002 17.9649 22.8002 12.0002C22.8002 6.03552 17.9649 1.2002 12.0002 1.2002C6.03552 1.2002 1.2002 6.03552 1.2002 12.0002C1.2002 17.9649 6.03552 22.8002 12.0002 22.8002Z" fill="url(#paint1_linear_4_2)"/>
<path id="Vector_8" fill-rule="evenodd" clip-rule="evenodd" d="M12.0002 22.0322C17.5407 22.0322 22.0322 17.5407 22.0322 12.0002C22.0322 6.45964 17.5407 1.9682 12.0002 1.9682C6.45964 1.9682 1.9682 6.45964 1.9682 12.0002C1.9682 17.5407 6.45964 22.0322 12.0002 22.0322ZM12.0002 22.8002C17.9649 22.8002 22.8002 17.9649 22.8002 12.0002C22.8002 6.03552 17.9649 1.2002 12.0002 1.2002C6.03552 1.2002 1.2002 6.03552 1.2002 12.0002C1.2002 17.9649 6.03552 22.8002 12.0002 22.8002Z" fill="url(#paint2_linear_4_2)"/>
<path id="Vector_9" d="M11.1743 7.19922V7.86117C10.7721 8.15828 10.3645 8.40166 9.95268 8.59171C9.50725 8.78468 9.0613 8.88162 8.61588 8.88162C8.58805 8.88162 8.5597 8.88162 8.53188 8.88068V8.86917C8.52805 8.86917 8.5237 8.86917 8.51987 8.86868V8.85717C8.51605 8.85717 8.5117 8.85717 8.50787 8.85668V8.84517C8.50405 8.84517 8.4997 8.84517 8.49588 8.84468V8.83317C8.49205 8.83317 8.4877 8.83317 8.48388 8.83268V8.82117C8.48005 8.82117 8.4757 8.82117 8.47187 8.82068V8.80917C8.46805 8.80917 8.4637 8.80917 8.45987 8.80868V8.79717C8.45605 8.79717 8.4517 8.79717 8.44788 8.79668V8.78517C8.44405 8.78517 8.4397 8.78517 8.43588 8.78468V8.77317C8.43205 8.77317 8.4277 8.77317 8.42388 8.77268V8.76117C8.42005 8.76117 8.4157 8.76117 8.41187 8.76068V8.74917C8.40805 8.74917 8.4037 8.74917 8.39987 8.74868V8.73717C8.39605 8.73717 8.3917 8.73717 8.38788 8.73668V8.72517C8.38405 8.72517 8.3797 8.72517 8.37588 8.72468V8.71317C8.37205 8.71317 8.3677 8.71317 8.36388 8.71268V8.70117C8.36005 8.70117 8.3557 8.70117 8.35187 8.70068V8.68917C8.34805 8.68917 8.3437 8.68917 8.33987 8.68868V8.67717C8.33605 8.67717 8.3317 8.67717 8.32788 8.67668V8.66517C8.32405 8.66517 8.3197 8.66517 8.31588 8.66468V8.65317C8.31205 8.65317 8.3077 8.65317 8.30387 8.65268V8.64117C8.30005 8.64117 8.2957 8.64117 8.29187 8.64068V8.62917C8.28805 8.62917 8.2837 8.62917 8.27988 8.62868V8.61717C8.27605 8.61717 8.2717 8.61717 8.26788 8.61668V8.60517C8.26405 8.60517 8.2597 8.60517 8.25588 8.60468V8.59317C8.25205 8.59317 8.2477 8.59317 8.24387 8.59268V8.58117C8.24005 8.58117 8.2357 8.58117 8.23187 8.58068V8.56917C8.22805 8.56917 8.2237 8.56917 8.21988 8.56868V8.55717C8.21605 8.55717 8.2117 8.55717 8.20788 8.55668V8.54517C8.20405 8.54517 8.1997 8.54517 8.19588 8.54468V8.53317C8.19205 8.53317 8.1877 8.53317 8.18387 8.53268V8.52117C8.18005 8.52117 8.1757 8.52117 8.17188 8.52068V8.50868C8.19588 8.50962 8.21987 8.50962 8.24387 8.50962C8.6893 8.50962 9.13525 8.41268 9.58067 8.21971C10.0544 8.00131 10.5215 7.71237 10.9823 7.35237C11.0466 7.30197 11.1109 7.25108 11.1743 7.19922Z" fill="#85490E"/>
<path id="Vector_10" d="M13.1401 5.41176V18.8998H11.5465V18.8878H11.5345V18.8758H11.5225V18.8638H11.5105V18.8518H11.4985V18.8398H11.4865V18.8278H11.4745V18.8158H11.4625V18.8038H11.4505V18.7918H11.4385V18.7798H11.4265V18.7678H11.4145V18.7558H11.4025V18.7438H11.3905V18.7318H11.3785V18.7198H11.3665V18.7078H11.3545V18.6958H11.3425V18.6838H11.3305V18.6718H11.3185V18.6598H11.3065V18.6478H11.2945V18.6358H11.2825V18.6238H11.2705V18.6118H11.2585V18.5998H11.2465V18.5878H11.2345V18.5758H11.2225V18.5638H11.2105V18.5518H11.1985V18.5398H11.1865V18.5278H12.7681V5.05176H12.7801V5.06376H12.7921V5.07576H12.8041V5.08776H12.8161V5.09976H12.8281V5.11176H12.8401V5.12376H12.8521V5.13576H12.8641V5.14776H12.8761V5.15976H12.8881V5.17176H12.9001V5.18376H12.9121V5.19576H12.9241V5.20776H12.9361V5.21976H12.9481V5.23176H12.9601V5.24376H12.9721V5.25576H12.9841V5.26776H12.9961V5.27976H13.0081V5.29176H13.0201V5.30376H13.0321V5.31576H13.0441V5.32776H13.0561V5.33976H13.0681V5.35176H13.0801V5.36376H13.0921V5.37576H13.1041V5.38776H13.1161V5.39976H13.1281V5.41176H13.1401Z" fill="#85490E"/>
<path id="Vector_11" d="M12.7682 5.04004V18.528H11.1746V7.86101C11.1707 7.86386 11.1784 7.85813 11.1746 7.86101V7.19906C11.1112 7.25093 11.0469 7.30181 10.9826 7.35221C10.5218 7.71221 10.0547 8.00115 9.58096 8.21955C9.13553 8.41253 8.68958 8.50946 8.24416 8.50946C8.22016 8.50946 8.19616 8.50946 8.17216 8.50853C8.16833 8.50901 8.16398 8.50853 8.16016 8.50853V7.02484C8.17696 7.02626 8.19424 7.02626 8.21153 7.02626C8.46927 7.02626 8.77264 6.93555 9.12016 6.75506C9.49167 6.56261 9.87567 6.31204 10.2722 6.00341C10.6691 5.69524 11.0147 5.37413 11.309 5.04004H12.7682Z" fill="url(#paint3_linear_4_2)"/>
</g>
</g>
</g>
</g>
</g>
</g>
</g>
<defs>
<linearGradient id="paint0_linear_4_2" x1="11.9998" y1="1.96777" x2="11.9998" y2="22.0318" gradientUnits="userSpaceOnUse">
<stop stop-color="#CA8404"/>
<stop offset="1" stop-color="#A15D07"/>
</linearGradient>
<linearGradient id="paint1_linear_4_2" x1="22.8002" y1="1.2002" x2="1.2002" y2="22.8002" gradientUnits="userSpaceOnUse">
<stop stop-color="#44403C"/>
<stop offset="0.4" stop-color="#44403C" stop-opacity="0"/>
</linearGradient>
<linearGradient id="paint2_linear_4_2" x1="22.8002" y1="1.2002" x2="1.2002" y2="22.8002" gradientUnits="userSpaceOnUse">
<stop offset="0.6" stop-color="#F5F5F4" stop-opacity="0"/>
<stop offset="1" stop-color="#F5F5F4"/>
</linearGradient>
<linearGradient id="paint3_linear_4_2" x1="10.4642" y1="5.04004" x2="10.4642" y2="18.528" gradientUnits="userSpaceOnUse">
<stop stop-color="#FEF7C3"/>
<stop offset="1" stop-color="#FDDA47"/>
</linearGradient>
<clipPath id="clip0_4_2">
<rect width="913" height="48" fill="white" transform="translate(-12 -12)"/>
</clipPath>
</defs>
</svg>
