<svg width="24" height="24" viewBox="0 0 24 24" fill="none" xmlns="http://www.w3.org/2000/svg">
<rect width="24" height="24" fill="black"/>
<g id="Homepage">
<rect width="1440" height="6839" transform="translate(-1008.5 -5547)" fill="#F5F6F8"/>
<g id="partners">
<mask id="path-1-inside-1_4_2" fill="white">
<path d="M-1008.5 -52H431.5V156H-1008.5V-52Z"/>
</mask>
<path d="M-1008.5 -52H431.5V156H-1008.5V-52Z" fill="#EBEEF3"/>
<path d="M431.5 156V155H-1008.5V156V157H431.5V156Z" fill="#ECEEF2" mask="url(#path-1-inside-1_4_2)"/>
<g id="prow" clip-path="url(#clip0_4_2)">
<g id="p">
<path d="M12 -11.5H144C156.979 -11.5 167.5 -0.978691 167.5 12C167.5 24.9787 156.979 35.5 144 35.5H12C-0.978691 35.5 -11.5 24.9787 -11.5 12C-11.5 -0.97869 -0.978691 -11.5 12 -11.5Z" fill="white"/>
<path d="M12 -11.5H144C156.979 -11.5 167.5 -0.978691 167.5 12C167.5 24.9787 156.979 35.5 144 35.5H12C-0.978691 35.5 -11.5 24.9787 -11.5 12C-11.5 -0.97869 -0.978691 -11.5 12 -11.5Z" stroke="#ECEEF2"/>
<g id="Coin Logo">
<g id="PancakeSwap (CAKE)">
<path id="PancakeSwap (CAKE)_2" fill-rule="evenodd" clip-rule="evenodd" d="M12 24C5.4 24 0 18.6001 0 11.9402C0.06 5.34038 5.4 -0.0595036 12.06 0.000495204C18.66 0.060494 24 5.40038 24 12.1202C23.94 18.6601 18.6 24 12 24Z" fill="#D1884F"/>
<g id="PancakeSwap (CAKE)_3">
<path id="PancakeSwap (CAKE)_4" fill-rule="evenodd" clip-rule="evenodd" d="M7.48548 7.1875C7.26746 6.05 8.13956 5 9.27329 5C10.2762 5 11.1047 5.83125 11.1047 6.8375V9.1125C11.3663 9.1125 11.628 9.06875 11.8896 9.06875C12.1512 9.06875 12.3692 9.06875 12.6309 9.1125V6.8375C12.6309 5.83125 13.4594 5 14.4623 5C15.596 5 16.4681 6.05 16.2937 7.1875L15.814 9.85625C17.5146 10.6 18.8228 11.9125 18.8228 13.5312V14.5375C18.8228 15.8938 17.9507 17.0312 16.6861 17.775C15.4216 18.5625 13.7646 19 11.8896 19C10.0146 19 8.35758 18.5625 7.09304 17.775C5.8721 17.0312 5 15.8938 5 14.5375V13.5312C5 11.9125 6.26455 10.6 7.96514 9.85625L7.48548 7.1875ZM15.16 10.2063L15.7268 7.05625C15.8576 6.26875 15.2908 5.525 14.4623 5.525C13.7646 5.525 13.1977 6.09375 13.1977 6.79375V9.68125C13.0233 9.6375 12.8053 9.6375 12.6309 9.6375C12.3692 9.6375 12.1512 9.59375 11.8896 9.59375C11.628 9.59375 11.3663 9.59375 11.1047 9.6375C10.9303 9.6375 10.7123 9.68125 10.5378 9.68125V6.8375C10.5378 6.1375 9.97097 5.56875 9.27329 5.56875C8.4884 5.56875 7.87793 6.3125 8.05235 7.1L8.61922 10.25C6.7878 10.95 5.56686 12.175 5.56686 13.575V14.5813C5.56686 16.725 8.40119 18.475 11.8896 18.475C15.378 18.475 18.2123 16.725 18.2123 14.5813V13.575C18.2559 12.1312 17.035 10.9062 15.16 10.2063Z" fill="#633001"/>
<path id="PancakeSwap (CAKE)_5" d="M18.2474 14.5253C18.2474 16.6962 15.3973 18.4684 11.8896 18.4684C8.3818 18.4684 5.53174 16.6962 5.53174 14.5253V13.5063H18.2912V14.5253H18.2474Z" fill="#FEDC90"/>
<path id="PancakeSwap (CAKE)_6" fill-rule="evenodd" clip-rule="evenodd" d="M7.99564 7.05957C7.81965 6.27383 8.43562 5.53174 9.22759 5.53174C9.93156 5.53174 10.5035 6.09922 10.5035 6.79765V9.6787C10.9435 9.63505 11.3835 9.5914 11.8675 9.5914C12.3075 9.5914 12.7475 9.63505 13.1874 9.6787V6.79765C13.1874 6.09922 13.7594 5.53174 14.4634 5.53174C15.2554 5.53174 15.8713 6.27383 15.7393 7.05957L15.1674 10.2025C17.0153 10.901 18.2912 12.1232 18.2912 13.5201C18.2912 15.6591 15.4313 17.4052 11.9115 17.4052C8.39162 17.4052 5.53174 15.6591 5.53174 13.5201C5.53174 12.1232 6.76369 10.901 8.61162 10.2025L7.99564 7.05957Z" fill="#D1884F"/>
<path id="PancakeSwap (CAKE)_7" d="M10.1392 13.3289C10.1392 13.9049 9.82903 14.3922 9.4303 14.3922C9.03156 14.3922 8.72144 13.9049 8.72144 13.3289C8.72144 12.753 9.03156 12.2656 9.4303 12.2656C9.82903 12.2656 10.1392 12.753 10.1392 13.3289Z" fill="#633001"/>
<path id="PancakeSwap (CAKE)_8" d="M15.1013 13.3289C15.1013 13.9049 14.7912 14.3922 14.3925 14.3922C13.9937 14.3922 13.6836 13.9049 13.6836 13.3289C13.6836 12.753 13.9937 12.2656 14.3925 12.2656C14.7912 12.2656 15.1013 12.753 15.1013 13.3289Z" fill="#633001"/>
</g>
</g>
</g>
</g>
</g>
</g>
</g>
<defs>
<clipPath id="clip0_4_2">
<rect width="913" height="48" fill="white" transform="translate(-745 -12)"/>
</clipPath>
</defs>
</svg>
