<svg width="24" height="24" viewBox="0 0 24 24" fill="none" xmlns="http://www.w3.org/2000/svg">
<rect width="24" height="24" fill="black"/>
<g id="Homepage">
<rect width="1440" height="6839" transform="translate(-686.5 -5547)" fill="#F5F6F8"/>
<g id="partners">
<mask id="path-1-inside-1_4_2" fill="white">
<path d="M-686.5 -52H753.5V156H-686.5V-52Z"/>
</mask>
<path d="M-686.5 -52H753.5V156H-686.5V-52Z" fill="#EBEEF3"/>
<path d="M753.5 156V155H-686.5V156V157H753.5V156Z" fill="#ECEEF2" mask="url(#path-1-inside-1_4_2)"/>
<g id="prow">
<g id="p">
<path d="M12 -11.5H113C125.979 -11.5 136.5 -0.978691 136.5 12C136.5 24.9787 125.979 35.5 113 35.5H12C-0.978691 35.5 -11.5 24.9787 -11.5 12C-11.5 -0.775932 -1.30486 -11.1705 11.3936 -11.4922L12 -11.5Z" fill="white"/>
<path d="M12 -11.5H113C125.979 -11.5 136.5 -0.978691 136.5 12C136.5 24.9787 125.979 35.5 113 35.5H12C-0.978691 35.5 -11.5 24.9787 -11.5 12C-11.5 -0.775932 -1.30486 -11.1705 11.3936 -11.4922L12 -11.5Z" stroke="#ECEEF2"/>
<g id="Coin Logo">
<g id="Solana (SOL)">
<circle id="Chainlink (LINK)" cx="12" cy="12" r="12" fill="black"/>
<path id="Union" d="M12.0146 3.83594C12.6048 3.83573 13.1891 3.95359 13.7334 4.18262C14.2779 4.41172 14.7714 4.74804 15.1855 5.1709C16.0295 6.0278 16.5026 7.18565 16.5 8.3916V9.89648C16.4999 10.3773 16.4056 10.8536 16.2226 11.2979C16.0395 11.7424 15.771 12.1471 15.4326 12.4873C15.0942 12.8275 14.6921 13.0971 14.25 13.2812C13.8217 13.4596 13.3636 13.5528 12.9004 13.5586H16.5V15.042C16.5061 15.638 16.3945 16.2298 16.1719 16.7822C15.9492 17.3347 15.6192 17.8371 15.2021 18.2607C14.7851 18.6844 14.2884 19.0214 13.7412 19.251C13.1942 19.4804 12.6073 19.5986 12.0146 19.5986C11.4217 19.5986 10.8343 19.4805 10.2871 19.251C9.74001 19.0214 9.24417 18.6843 8.82714 18.2607C8.41006 17.8371 8.08009 17.3347 7.85741 16.7822C7.63479 16.2298 7.52322 15.638 7.52929 15.042V13.5586C7.52926 13.0775 7.62353 12.6007 7.80663 12.1562C7.98975 11.7118 8.25833 11.308 8.59667 10.9678C8.93507 10.6275 9.33715 10.358 9.77929 10.1738C10.1992 9.99902 10.6476 9.90546 11.1016 9.89648H7.52929V8.3916C7.52623 7.79647 7.63958 7.20628 7.86327 6.65527C8.087 6.10428 8.41659 5.60266 8.833 5.17969C9.24949 4.75667 9.7452 4.41999 10.291 4.18945C10.8368 3.95897 11.4227 3.83889 12.0146 3.83594ZM11.9482 6.93652C11.8466 6.93656 11.7462 6.95704 11.6523 6.99609C11.5583 7.03527 11.4724 7.09264 11.4004 7.16504C11.3284 7.23742 11.2713 7.32342 11.2324 7.41797C11.1935 7.51243 11.1738 7.61359 11.1738 7.71582V15.7383C11.1738 15.8406 11.1935 15.9425 11.2324 16.0371C11.2714 16.1317 11.3284 16.2177 11.4004 16.29C11.4724 16.3625 11.5583 16.4198 11.6523 16.459C11.7463 16.498 11.8475 16.5186 11.9492 16.5186H12.0801C12.1819 16.5186 12.2829 16.4981 12.3769 16.459C12.471 16.4198 12.5569 16.3625 12.6289 16.29C12.7008 16.2177 12.7579 16.1316 12.7969 16.0371C12.8358 15.9425 12.8555 15.8407 12.8555 15.7383V7.71582C12.8554 7.61366 12.8357 7.51238 12.7969 7.41797C12.7579 7.32337 12.6999 7.23743 12.6279 7.16504C12.556 7.09275 12.4709 7.03525 12.3769 6.99609C12.2829 6.95693 12.1819 6.93651 12.0801 6.93652H11.9482Z" fill="#F2F2F2"/>
</g>
</g>
</g>
</g>
</g>
</g>
</svg>
