<svg preserveAspectRatio="none" width="100%" height="100%" overflow="visible" style="display: block;" viewBox="0 0 30 30" fill="none" xmlns="http://www.w3.org/2000/svg">
<g id="AEGIS X- LOGO &#229;&#156;&#134;&#229;&#189;&#162;_&#231;&#148;&#187;&#230;&#157;&#191; 1 &#229;&#137;&#175;&#230;&#156;&#172; &#232;&#164;&#135;&#230;&#156;&#172; 2 1" clip-path="url(#clip0_0_4)">
<path id="Vector" d="M15 30C23.2843 30 30 23.2843 30 15C30 6.71573 23.2843 0 15 0C6.71573 0 0 6.71573 0 15C0 23.2843 6.71573 30 15 30Z" fill="var(--fill-0, black)"/>
<g id="Group">
<path id="Vector_2" d="M3.93667 17.2653H5.10778C5.26944 17.54 5.63278 17.7661 6.11722 17.7661C6.85222 17.7661 7.36083 17.1767 7.36083 16.4739V16.2478C7.03778 16.6517 6.56139 16.91 5.9475 16.91C4.72806 16.91 3.8075 15.9328 3.8075 14.7294C3.8075 13.5261 4.73611 12.5489 5.95556 12.5489C6.56917 12.5489 7.03778 12.8072 7.36083 13.2111V12.6378H8.41056V16.4575C8.41056 17.7092 7.44139 18.7186 6.13333 18.7186C5.06722 18.7186 4.24361 18.1211 3.93667 17.265V17.2653ZM6.14139 15.8764C6.81972 15.8764 7.36083 15.4081 7.36083 14.7297C7.36083 14.0514 6.81972 13.5831 6.14139 13.5831C5.46306 13.5831 4.93 14.0514 4.93 14.7297C4.93 15.4081 5.46306 15.8764 6.14139 15.8764Z" fill="var(--fill-0, white)"/>
<path id="Vector_3" d="M11.6083 11.37H12.2383L14.9922 17.0231H13.7647L13.2317 15.9006H10.5828L10.0497 17.0231H8.84639L11.6083 11.37ZM12.8036 14.9961L11.9072 13.0903L11.0108 14.9961H12.8036Z" fill="var(--fill-0, white)"/>
<path id="Vector_4" d="M14.9028 14.1964C14.9028 12.5811 16.195 11.2811 17.8667 11.2811C19.1508 11.2811 20.2167 12.0242 20.6286 13.1628H19.385C19.0861 12.6378 18.5614 12.3472 17.8667 12.3472C16.8492 12.3472 16.0253 13.1628 16.0253 14.1967C16.0253 15.2306 16.8489 16.0542 17.8667 16.0542C18.6661 16.0542 19.2719 15.6181 19.5383 14.9317H17.7858V13.9544H20.7819V14.1564C20.7819 15.8522 19.5303 17.1122 17.8667 17.1122C16.2031 17.1122 14.9028 15.8119 14.9028 14.1969V14.1964Z" fill="var(--fill-0, white)"/>
<path id="Vector_5" d="M22.7442 14.0994L20.7575 11.3697H22.0658L23.4792 13.3806L24.8117 11.3697H26.0794L24.1089 14.1719L26.1925 17.0228H24.8761L23.3822 14.8989L21.9528 17.0228H20.685L22.7444 14.0994H22.7442Z" fill="var(--fill-0, white)"/>
</g>
</g>
<defs>
<clipPath id="clip0_0_4">
<rect width="30" height="30" fill="white"/>
</clipPath>
</defs>
</svg>
