<svg width="36" height="36" viewBox="0 0 36 36" fill="none" xmlns="http://www.w3.org/2000/svg">
  <path fill-rule="evenodd" clip-rule="evenodd" d="M18 34.2C26.947 34.2 34.2 26.947 34.2 18C34.2 9.05299 26.947 1.8 18 1.8C9.05299 1.8 1.8 9.05299 1.8 18C1.8 26.947 9.05299 34.2 18 34.2ZM18 36C27.9411 36 36 27.9411 36 18C36 8.05888 27.9411 0 18 0C8.05888 0 0 8.05888 0 18C0 27.9411 8.05888 36 18 36Z" fill="#EAAC08"/>
  <path d="M18 33.048C26.3108 33.048 33.048 26.3108 33.048 18C33.048 9.68926 26.3108 2.95203 18 2.95203C9.68926 2.95203 2.95203 9.68926 2.95203 18C2.95203 26.3108 9.68926 33.048 18 33.048Z" fill="url(#usd1-a)"/>
  <path d="M3.32508 21.3444L9.94394 17.5815L3.05127 16.2626C3.42412 13.0191 4.82829 10.0893 6.92754 7.80945C8.58955 8.7248 10.2516 9.64044 11.9136 10.556C13.9462 11.6758 15.9789 12.7956 18.0114 13.9147L26.6784 18.6867L27.0029 18.866C27.356 19.1362 27.5692 19.5955 27.5527 20.0916C28.7515 20.4968 29.2775 22.081 28.9932 23.4465C28.5027 22.5967 27.7137 22.0096 26.8134 21.8378C25.4463 21.8771 24.084 21.6388 22.7904 21.1378C20.8925 20.8652 19.3762 21.2435 18.0138 21.9851C16.3398 22.8977 14.4846 24.6387 12.8067 26.2133C12.2807 26.7069 11.7722 27.1841 11.2921 27.6143C10.3849 28.3625 9.1916 28.9002 7.95713 29.2064C7.46416 28.7643 7.00049 28.2901 6.56945 27.7873L10.7235 24.1981C10.9178 24.0286 10.9557 23.7142 10.804 23.4956C10.6548 23.277 10.3728 23.2353 10.1784 23.4048L5.97016 27.0414C5.4106 26.2981 4.91831 25.5013 4.50238 24.6599L5.556 23.9254C5.76451 23.778 5.82847 23.4711 5.69814 23.2353C5.56784 23.0019 5.29063 22.9307 5.08214 23.0756L4.09532 23.7635C3.77342 22.9877 3.51454 22.1793 3.32508 21.3444Z" fill="#CA8404"/>
  <path d="M31.9384 12.3187C32.3469 13.3198 32.6506 14.3747 32.836 15.4699C32.6123 15.5099 32.3886 15.5499 32.165 15.5898L32.1644 15.5899C29.935 15.9881 27.706 16.3863 25.3822 16.857L17.1654 12.3797L27.0691 6.98383C27.3235 6.84517 27.5702 6.71411 27.8112 6.58997C29.3292 7.89648 30.5836 9.50079 31.4837 11.3122L30.0023 11.5815C29.7464 11.6257 29.5711 11.9008 29.6114 12.1954C29.6492 12.4902 29.8886 12.6892 30.1445 12.6449L31.9384 12.3187Z" fill="#CA8404"/>
  <path fill-rule="evenodd" clip-rule="evenodd" d="M17.9999 33.0479C26.3107 33.0479 33.0479 26.3107 33.0479 17.9999C33.0479 9.6891 26.3107 2.95193 17.9999 2.95193C9.6891 2.95193 2.95193 9.6891 2.95193 17.9999C2.95193 26.3107 9.6891 33.0479 17.9999 33.0479ZM17.9999 34.1999C26.9469 34.1999 34.1999 26.9469 34.1999 17.9999C34.1999 9.05291 26.9469 1.79993 17.9999 1.79993C9.05291 1.79993 1.79993 9.05291 1.79993 17.9999C1.79993 26.9469 9.05291 34.1999 17.9999 34.1999Z" fill="#EAAC08"/>
  <path fill-rule="evenodd" clip-rule="evenodd" d="M17.9999 33.0479C26.3107 33.0479 33.0479 26.3107 33.0479 17.9999C33.0479 9.6891 26.3107 2.95193 17.9999 2.95193C9.6891 2.95193 2.95193 9.6891 2.95193 17.9999C2.95193 26.3107 9.6891 33.0479 17.9999 33.0479ZM17.9999 34.1999C26.9469 34.1999 34.1999 26.9469 34.1999 17.9999C34.1999 9.05291 26.9469 1.79993 17.9999 1.79993C9.05291 1.79993 1.79993 9.05291 1.79993 17.9999C1.79993 26.9469 9.05291 34.1999 17.9999 34.1999Z" fill="url(#usd1-b)"/>
  <path fill-rule="evenodd" clip-rule="evenodd" d="M17.9999 33.0479C26.3107 33.0479 33.0479 26.3107 33.0479 17.9999C33.0479 9.6891 26.3107 2.95193 17.9999 2.95193C9.6891 2.95193 2.95193 9.6891 2.95193 17.9999C2.95193 26.3107 9.6891 33.0479 17.9999 33.0479ZM17.9999 34.1999C26.9469 34.1999 34.1999 26.9469 34.1999 17.9999C34.1999 9.05291 26.9469 1.79993 17.9999 1.79993C9.05291 1.79993 1.79993 9.05291 1.79993 17.9999C1.79993 26.9469 9.05291 34.1999 17.9999 34.1999Z" fill="url(#usd1-c)"/>
  <path d="M16.7618 10.7985V11.7914C16.1584 12.2371 15.5471 12.6021 14.9294 12.8872C14.2612 13.1767 13.5923 13.3221 12.9242 13.3221C12.8824 13.3221 12.8399 13.3221 12.7982 13.3207V13.3034C12.7924 13.3034 12.7859 13.3034 12.7802 13.3027V13.2854C12.7744 13.2854 12.7679 13.2854 12.7622 13.2847V13.2674C12.7564 13.2674 12.7499 13.2674 12.7442 13.2667V13.2494C12.7384 13.2494 12.7319 13.2494 12.7262 13.2487V13.2314C12.7204 13.2314 12.7139 13.2314 12.7082 13.2307V13.2134C12.7024 13.2134 12.6959 13.2134 12.6902 13.2127V13.1954C12.6844 13.1954 12.6779 13.1954 12.6722 13.1947V13.1774C12.6664 13.1774 12.6599 13.1774 12.6542 13.1767V13.1594C12.6484 13.1594 12.6419 13.1594 12.6362 13.1587V13.1414C12.6304 13.1414 12.6239 13.1414 12.6182 13.1407V13.1234C12.6124 13.1234 12.6059 13.1234 12.6002 13.1227V13.1054C12.5944 13.1054 12.5879 13.1054 12.5822 13.1047V13.0874C12.5764 13.0874 12.5699 13.0874 12.5642 13.0867V13.0694C12.5584 13.0694 12.5519 13.0694 12.5462 13.0687V13.0514C12.5404 13.0514 12.5339 13.0514 12.5282 13.0507V13.0334C12.5224 13.0334 12.5159 13.0334 12.5102 13.0327V13.0154C12.5044 13.0154 12.4979 13.0154 12.4922 13.0147V12.9974C12.4864 12.9974 12.4799 12.9974 12.4742 12.9967V12.9794C12.4684 12.9794 12.4619 12.9794 12.4562 12.9787V12.9614C12.4504 12.9614 12.4439 12.9614 12.4382 12.9607V12.9434C12.4324 12.9434 12.4259 12.9434 12.4202 12.9427V12.9254C12.4144 12.9254 12.4079 12.9254 12.4022 12.9247V12.9074C12.3964 12.9074 12.3899 12.9074 12.3842 12.9067V12.8894C12.3784 12.8894 12.3719 12.8894 12.3662 12.8887V12.8714C12.3604 12.8714 12.3539 12.8714 12.3482 12.8707V12.8534C12.3424 12.8534 12.3359 12.8534 12.3302 12.8527V12.8354C12.3244 12.8354 12.3179 12.8354 12.3122 12.8347V12.8174C12.3064 12.8174 12.2999 12.8174 12.2942 12.8167V12.7994C12.2884 12.7994 12.2819 12.7994 12.2762 12.7987V12.7814C12.2704 12.7814 12.2639 12.7814 12.2582 12.7807V12.7627C12.2942 12.7641 12.3302 12.7641 12.3662 12.7641C13.0343 12.7641 13.7032 12.6187 14.3714 12.3292C15.082 12.0016 15.7826 11.5682 16.4738 11.0282C16.5702 10.9526 16.6667 10.8763 16.7618 10.7985Z" fill="#85490E"/>
  <path d="M19.7098 8.118V28.35H17.3194V28.332H17.3014V28.314H17.2834V28.296H17.2654V28.278H17.2474V28.26H17.2294V28.242H17.2114V28.224H17.1934V28.206H17.1754V28.188H17.1574V28.17H17.1394V28.152H17.1214V28.134H17.1034V28.116H17.0854V28.098H17.0674V28.08H17.0494V28.062H17.0314V28.044H17.0134V28.026H16.9954V28.008H16.9774V27.99H16.9594V27.972H16.9414V27.954H16.9234V27.936H16.9054V27.918H16.8874V27.9H16.8694V27.882H16.8514V27.864H16.8334V27.846H16.8154V27.828H16.7974V27.81H16.7794V27.792H19.1518V7.578H19.1698V7.596H19.1878V7.614H19.2058V7.632H19.2238V7.65H19.2418V7.668H19.2598V7.686H19.2778V7.704H19.2958V7.722H19.3138V7.74H19.3318V7.758H19.3498V7.776H19.3678V7.794H19.3858V7.812H19.4038V7.83H19.4218V7.848H19.4398V7.866H19.4578V7.884H19.4758V7.902H19.4938V7.92H19.5118V7.938H19.5298V7.956H19.5478V7.974H19.5658V7.992H19.5838V8.01H19.6018V8.028H19.6198V8.046H19.6378V8.064H19.6558V8.082H19.6738V8.1H19.6918V8.118H19.7098Z" fill="#85490E"/>
  <path d="M19.1519 7.56006V27.7921H16.7615V11.7915C16.7673 11.7872 16.7557 11.7958 16.7615 11.7915V10.7986C16.6665 10.8764 16.5699 10.9527 16.4735 11.0283C15.7823 11.5683 15.0817 12.0017 14.3711 12.3293C13.7029 12.6188 13.034 12.7642 12.3659 12.7642C12.3299 12.7642 12.2939 12.7642 12.2579 12.7628C12.2521 12.7635 12.2456 12.7628 12.2399 12.7628V10.5373C12.2651 10.5394 12.291 10.5394 12.3169 10.5394C12.7035 10.5394 13.1586 10.4033 13.6799 10.1326C14.2371 9.84392 14.8131 9.46806 15.4079 9.00512C16.0033 8.54286 16.5217 8.06119 16.9631 7.56006H19.1519Z" fill="url(#usd1-d)"/>
  <defs>
    <linearGradient id="usd1-a" x1="18" y1="2.95203" x2="18" y2="33.048" gradientUnits="userSpaceOnUse">
      <stop stop-color="#CA8404"/>
      <stop offset="1" stop-color="#A15D07"/>
    </linearGradient>
    <linearGradient id="usd1-b" x1="34.1999" y1="1.79993" x2="1.79993" y2="34.1999" gradientUnits="userSpaceOnUse">
      <stop stop-color="#44403C"/>
      <stop offset="0.4" stop-color="#44403C" stop-opacity="0"/>
    </linearGradient>
    <linearGradient id="usd1-c" x1="34.1999" y1="1.79993" x2="1.79993" y2="34.1999" gradientUnits="userSpaceOnUse">
      <stop offset="0.6" stop-color="#F5F5F4" stop-opacity="0"/>
      <stop offset="1" stop-color="#F5F5F4"/>
    </linearGradient>
    <linearGradient id="usd1-d" x1="15.6959" y1="7.56006" x2="15.6959" y2="27.7921" gradientUnits="userSpaceOnUse">
      <stop stop-color="#FEF7C3"/>
      <stop offset="1" stop-color="#FDDA47"/>
    </linearGradient>
  </defs>
</svg>
