<svg width="18" height="18" viewBox="0 0 18 18" fill="none" xmlns="http://www.w3.org/2000/svg">
  <path d="M17.7287 11.1771C16.5267 15.9986 11.6433 18.9329 6.82128 17.7306C2.00125 16.5285 -0.933006 11.6449 0.269537 6.82378C1.47102 2.00177 6.3544 -0.932704 11.175 0.269311C15.9966 1.47133 18.9307 6.35553 17.7286 11.1772L17.7287 11.1771Z" fill="#F3BA2F"/>
  <path fill-rule="evenodd" clip-rule="evenodd" d="M9 5.712L6.6695 8.0425L5.3136 6.6864L9 3L12.6876 6.6875L11.3316 8.0435L9 5.712ZM4.35605 7.64376L3 9L4.35595 10.3558L5.712 8.99971L4.35605 7.64376ZM6.6695 9.95765L9 12.288L11.3316 9.95654L12.6883 11.3118L12.6876 11.3125L9 15L5.3136 11.3136L5.31168 11.3117L6.6695 9.95765ZM13.644 7.64453L12.288 9.00058L13.644 10.3565L15 9.00048L13.644 7.64453Z" fill="white"/>
  <path d="M10.3753 8.99928H10.3759L9.00001 7.62331L7.98303 8.64L7.8662 8.75688L7.62524 8.99789L7.62332 8.99976L7.62524 9.00173L9.00001 10.3767L10.376 9.00072L10.3766 8.99995L10.3753 8.99928Z" fill="white"/>
</svg>
