<svg width="15" height="15" viewBox="0 0 15 15" fill="none" xmlns="http://www.w3.org/2000/svg">
  <path d="M4.0625 4.0625V2.5C4.0625 2.33424 4.12835 2.17527 4.24556 2.05806C4.36277 1.94085 4.52174 1.875 4.6875 1.875H12.5C12.6658 1.875 12.8247 1.94085 12.9419 2.05806C13.0592 2.17527 13.125 2.33424 13.125 2.5V10.3125C13.125 10.4783 13.0592 10.6372 12.9419 10.7544C12.8247 10.8717 12.6658 10.9375 12.5 10.9375H10.9375" stroke="white" stroke-width="1.5" stroke-linejoin="round"/>
  <path d="M10.3125 4.0625H2.5C2.15482 4.0625 1.875 4.34232 1.875 4.6875V12.5C1.875 12.8452 2.15482 13.125 2.5 13.125H10.3125C10.6577 13.125 10.9375 12.8452 10.9375 12.5V4.6875C10.9375 4.34232 10.6577 4.0625 10.3125 4.0625Z" stroke="white" stroke-width="1.5"/>
</svg>
