<svg width="22" height="22" viewBox="0 0 22 22" fill="none" xmlns="http://www.w3.org/2000/svg">
  <path d="M11 9.16667C12.7719 9.16667 14.2083 7.73025 14.2083 5.95833C14.2083 4.18642 12.7719 2.75 11 2.75C9.22808 2.75 7.79167 4.18642 7.79167 5.95833C7.79167 7.73025 9.22808 9.16667 11 9.16667Z" stroke="#0B0E14" stroke-width="1.5" stroke-linecap="round" stroke-linejoin="round"/>
  <path d="M5.5 3.32515C4.66881 3.90492 4.125 4.86814 4.125 5.95843C4.125 7.12548 4.74815 8.14701 5.67985 8.70842" stroke="#0B0E14" stroke-width="1.5" stroke-linecap="round" stroke-linejoin="round"/>
  <path d="M16.5 3.32515C17.3312 3.90492 17.875 4.86814 17.875 5.95843C17.875 7.04866 17.3312 8.01194 16.5 8.59169" stroke="#0B0E14" stroke-width="1.5" stroke-linecap="round" stroke-linejoin="round"/>
  <path d="M5.5 18.3333V19.25H16.5V18.3333C16.5 16.6249 16.5 15.7707 16.2209 15.0968C15.8488 14.1984 15.1349 13.4846 14.2365 13.1125C13.5627 12.8333 12.7084 12.8333 11 12.8333C9.29156 12.8333 8.43732 12.8333 7.76348 13.1125C6.86505 13.4846 6.15125 14.1984 5.77913 15.0968C5.5 15.7707 5.5 16.6249 5.5 18.3333Z" stroke="#0B0E14" stroke-width="1.5" stroke-linecap="round" stroke-linejoin="round"/>
  <path d="M20.1666 19.25V18.7C20.1666 16.6465 20.1666 15.6198 19.767 14.8354C19.4155 14.1455 18.8545 13.5846 18.1646 13.233" stroke="#0B0E14" stroke-width="1.5" stroke-linecap="round" stroke-linejoin="round"/>
  <path d="M1.83337 19.25V18.7C1.83337 16.6465 1.83337 15.6198 2.23302 14.8354C2.58455 14.1455 3.14548 13.5846 3.83541 13.233" stroke="#0B0E14" stroke-width="1.5" stroke-linecap="round" stroke-linejoin="round"/>
</svg>
