<svg width="18" height="18" viewBox="0 0 18 18" fill="none" xmlns="http://www.w3.org/2000/svg">
  <path d="M12.2188 17.25H5.775C4.93655 17.25 4.51733 17.25 4.18477 17.1184C3.7034 16.9278 3.32226 16.5466 3.13167 16.0652C3 15.7327 3 15.3134 3 14.475V3.525C3 2.68655 3 2.26733 3.13167 1.93477C3.32226 1.4534 3.7034 1.07226 4.18477 0.881669C4.51733 0.75 4.93655 0.75 5.775 0.75H9.375L14.5118 5.88687C14.6676 6.04258 14.7455 6.12045 14.8053 6.20849C14.8917 6.33573 14.9512 6.47935 14.9798 6.63047C14.9997 6.73504 14.9997 6.84622 14.9995 7.06861C14.9962 11.6547 14.9942 11.6999 14.9941 14.4718C14.9941 15.3124 14.9941 15.7328 14.8624 16.0653C14.6718 16.5467 14.2907 16.9277 13.8093 17.1184C13.4767 17.25 13.0574 17.25 12.2188 17.25Z" fill="white"/>
  <path d="M14.5308 5.90579C14.2958 5.72947 14.0039 5.625 13.6875 5.625H10.575C9.91228 5.625 9.375 5.08774 9.375 4.42502V0.75L14.5308 5.90579Z" fill="#E9B9B9"/>
  <path d="M11.4376 10.6875H6.56259C6.25193 10.6875 6.00009 10.9393 6.00009 11.25C6.00009 11.5607 6.25193 11.8125 6.56259 11.8125H11.4376C11.7483 11.8125 12.0001 11.5607 12.0001 11.25C12.0001 10.9393 11.7483 10.6875 11.4376 10.6875Z" fill="#E66A47"/>
  <path d="M9.93759 13.4062H6.56259C6.25193 13.4062 6.00009 13.6581 6.00009 13.9688C6.00009 14.2794 6.25193 14.5312 6.56259 14.5312H9.93759C10.2483 14.5312 10.5001 14.2794 10.5001 13.9688C10.5001 13.6581 10.2483 13.4062 9.93759 13.4062Z" fill="#E66A47"/>
</svg>
