<svg width="22" height="22" viewBox="0 0 22 22" fill="none" xmlns="http://www.w3.org/2000/svg">
  <path d="M11 19.25V11.9167" stroke="#0B0E14" stroke-width="1.5" stroke-linecap="round" stroke-linejoin="round"/>
  <path d="M19.2233 4.58645C18.8678 10.556 15.0386 12.4864 11.9147 12.7888C11.4108 12.8376 11 12.4227 11 11.9164V8.07932C11 7.97285 11.0187 7.86518 11.0571 7.76591C12.4289 4.21613 15.713 3.7377 18.3339 3.67562C18.8401 3.66363 19.2533 4.08105 19.2233 4.58645Z" stroke="#0B0E14" stroke-width="1.5" stroke-linecap="round" stroke-linejoin="round"/>
  <path d="M3.66595 2.78303C7.94136 3.09677 10.1728 5.57475 10.9239 7.16366C10.9764 7.27476 11 7.39667 11 7.51955V10.9588C11 11.4808 10.5597 11.9004 10.0402 11.8481C3.36282 11.1759 2.80089 6.7771 2.75418 3.66607C2.74659 3.15987 3.16105 2.74598 3.66595 2.78303Z" stroke="#0B0E14" stroke-width="1.5" stroke-linecap="round" stroke-linejoin="round"/>
</svg>
