<svg width="30" height="30" viewBox="0 0 29.9414 29.9414" fill="none" xmlns="http://www.w3.org/2000/svg">
  <path fill-rule="evenodd" clip-rule="evenodd" d="M14.9707 0C23.2389 0 29.9414 6.70254 29.9414 14.9707C29.9414 23.2389 23.2389 29.9414 14.9707 29.9414C6.70254 29.9414 0 23.2389 0 14.9707C0 6.70254 6.70254 0 14.9707 0ZM10.5732 9.32051C13.6939 9.32051 16.2234 11.8506 16.2234 14.9707C16.2234 18.0908 13.6939 20.6209 10.5732 20.6209C7.45312 20.6209 4.92363 18.0908 4.92363 14.9707C4.92363 11.8506 7.45312 9.32051 10.5732 9.32051ZM19.6137 9.76699C21.1928 9.76699 22.4725 12.0967 22.4725 14.9707C22.4725 17.8447 21.1928 20.1744 19.6137 20.1744C18.0346 20.1744 16.7549 17.8447 16.7549 14.9707C16.7549 12.0967 18.0346 9.76699 19.6137 9.76699ZM24.0223 10.2129C24.5719 10.2129 25.0178 12.3428 25.0178 14.9707C25.0178 17.5986 24.5719 19.7285 24.0223 19.7285C23.4721 19.7285 23.0262 17.5986 23.0262 14.9707C23.0262 12.3428 23.4721 10.2129 24.0223 10.2129Z" fill="#12100E"/>
</svg>
