<svg width="9" height="8" viewBox="0 0 9 8" fill="none" xmlns="http://www.w3.org/2000/svg">
  <path d="M8.60791 4.90909H0.097826C0.0718809 4.90909 0.0469985 4.91867 0.0286525 4.93572C0.0103066 4.95277 0 4.97589 0 5V5.68218C0 5.73164 0.043826 5.77236 0.097826 5.77236H7.49817L5.73417 7.85236C5.72298 7.86583 5.71604 7.88194 5.71414 7.89887C5.71224 7.9158 5.71546 7.93288 5.72342 7.94821C5.73138 7.96354 5.74378 7.9765 5.75923 7.98565C5.77467 7.9948 5.79256 7.99977 5.81087 8H6.69757C6.72722 8.00009 6.7565 7.99392 6.78321 7.98195C6.80992 7.96998 6.83336 7.95253 6.85174 7.93091L8.91548 5.49745C8.96085 5.44381 8.98907 5.3794 8.99691 5.31156C9.00475 5.24372 8.9919 5.1752 8.95982 5.11383C8.92774 5.05246 8.87772 5.00072 8.81549 4.96451C8.75327 4.92831 8.68133 4.9091 8.60791 4.90909ZM8.90217 2.22691H1.50261L3.26739 0.147637C3.27867 0.134068 3.28562 0.117832 3.28746 0.100774C3.2893 0.0837163 3.28595 0.0665211 3.2778 0.0511427C3.26964 0.0357643 3.25701 0.0228194 3.24134 0.0137789C3.22567 0.00473837 3.20758 0 3.18913 0H2.30243C2.27278 0 2.2435 0.00607845 2.21679 0.0180477C2.19008 0.030017 2.16665 0.0474715 2.14826 0.0690919L0.0845216 2.50255C0.0391898 2.55614 0.0109799 2.62049 0.00311015 2.68826C-0.00475962 2.75603 0.00802765 2.8245 0.0400132 2.88584C0.0719988 2.94718 0.121895 2.99894 0.184008 3.0352C0.246122 3.07146 0.317952 3.09076 0.391304 3.09091H8.90217C8.92812 3.09091 8.953 3.08133 8.97135 3.06428C8.98969 3.04723 9 3.02411 9 3V2.31782C9 2.29371 8.98969 2.27058 8.97135 2.25354C8.953 2.23649 8.92812 2.22691 8.90217 2.22691Z" fill="#E9785A"/>
</svg>
