<svg width="14" height="14" viewBox="0 0 14 14" fill="none" xmlns="http://www.w3.org/2000/svg">
  <path d="M5.33278 12.5916C4.35537 12.3006 3.48536 11.7604 2.79646 11.0445C3.05346 10.74 3.20833 10.3464 3.20833 9.9167C3.20833 8.9502 2.42483 8.1667 1.45833 8.1667C1.39987 8.1667 1.34207 8.16959 1.28508 8.17519C1.20744 7.79558 1.16667 7.40259 1.16667 7.00003C1.16667 6.39027 1.26022 5.80236 1.43377 5.24986C1.44194 5.24997 1.45013 5.25003 1.45833 5.25003C2.42483 5.25003 3.20833 4.46653 3.20833 3.50003C3.20833 3.22257 3.14376 2.96021 3.02884 2.72712C3.70344 2.09986 4.52681 1.63042 5.4402 1.37758C5.72962 1.94489 6.31945 2.33337 7 2.33337C7.68055 2.33337 8.27038 1.94489 8.5598 1.37758C9.47319 1.63042 10.2966 2.09986 10.9712 2.72712C10.8562 2.96021 10.7917 3.22257 10.7917 3.50003C10.7917 4.46653 11.5752 5.25003 12.5417 5.25003C12.5499 5.25003 12.5581 5.24997 12.5662 5.24986C12.7398 5.80236 12.8333 6.39027 12.8333 7.00003C12.8333 7.40259 12.7926 7.79558 12.7149 8.17519C12.6579 8.16959 12.6001 8.1667 12.5417 8.1667C11.5752 8.1667 10.7917 8.9502 10.7917 9.9167C10.7917 10.3464 10.9465 10.74 11.2035 11.0445C10.5146 11.7604 9.64463 12.3006 8.66723 12.5916C8.44165 11.886 7.7805 11.375 7 11.375C6.2195 11.375 5.55835 11.886 5.33278 12.5916Z" stroke="#E9785A" stroke-width="1.16667" stroke-linejoin="round"/>
  <path d="M7 9.04167C8.12758 9.04167 9.04167 8.12758 9.04167 7C9.04167 5.87242 8.12758 4.95833 7 4.95833C5.87242 4.95833 4.95833 5.87242 4.95833 7C4.95833 8.12758 5.87242 9.04167 7 9.04167Z" stroke="#E9785A" stroke-width="1.16667" stroke-linejoin="round"/>
</svg>
