<svg width="30" height="30" viewBox="0 0 30 30" fill="none" xmlns="http://www.w3.org/2000/svg">
  <path d="M15 0C11.0227 0 7.20469 1.58133 4.39453 4.39336C1.58148 7.20651 0.000779226 11.0217 0 15C0 18.9766 1.58203 22.7946 4.39453 25.6066C7.20469 28.4187 11.0227 30 15 30C18.9773 30 22.7953 28.4187 25.6055 25.6066C28.418 22.7946 30 18.9766 30 15C30 11.0234 28.418 7.20539 25.6055 4.39336C22.7953 1.58133 18.9773 0 15 0Z" fill="url(#ic-telegram-gradient)"/>
  <path d="M6.78984 14.8416C11.1633 12.9366 14.0789 11.6805 15.5367 11.0737C19.7039 9.34101 20.5687 9.04007 21.1336 9.02988C21.2578 9.02789 21.5344 9.05859 21.7148 9.20449C21.8648 9.32753 21.907 9.49394 21.9281 9.61078C21.9469 9.7275 21.9727 9.99351 21.9516 10.2012C21.7266 12.573 20.7492 18.3288 20.2523 20.9855C20.0437 22.1095 19.6289 22.4864 19.2281 22.5232C18.3562 22.6034 17.6953 21.9476 16.8516 21.3947C15.532 20.5291 14.7867 19.9905 13.5047 19.1461C12.0234 18.1702 12.9844 17.6337 13.8281 16.7571C14.0484 16.5277 17.8875 13.0366 17.9602 12.72C17.9695 12.6804 17.9789 12.5327 17.8898 12.4549C17.8031 12.3769 17.6742 12.4036 17.5805 12.4247C17.4469 12.4547 15.3398 13.8487 11.2523 16.6066C10.6547 17.0177 10.1133 17.2181 9.62578 17.2076C9.09141 17.1961 8.06016 16.9048 7.29375 16.6559C6.35625 16.3505 5.60859 16.189 5.67422 15.6703C5.70703 15.4003 6.07969 15.124 6.78984 14.8416Z" fill="white"/>
  <defs>
    <linearGradient id="ic-telegram-gradient" x1="15" y1="0" x2="15" y2="30" gradientUnits="userSpaceOnUse">
      <stop stop-color="#2AABEE"/>
      <stop offset="1" stop-color="#229ED9"/>
    </linearGradient>
  </defs>
</svg>
