<svg width="30" height="30" viewBox="0 0 30 30" fill="none" xmlns="http://www.w3.org/2000/svg">
  <path fill-rule="evenodd" clip-rule="evenodd" d="M15 30C23.2843 30 30 23.2843 30 15C30 6.71573 23.2843 0 15 0C6.71573 0 0 6.71573 0 15C0 23.2843 6.71573 30 15 30Z" fill="#FF0002"/>
  <path fill-rule="evenodd" clip-rule="evenodd" d="M12.935 17.6125L12.9344 11.9532L18.3381 14.7926L12.935 17.6125ZM24.8 10.9726C24.8 10.9726 24.6044 9.58467 24.005 8.97349C23.2444 8.17096 22.3919 8.16718 22.0013 8.1206C19.2025 7.91667 15.0044 7.91667 15.0044 7.91667H14.9956C14.9956 7.91667 10.7975 7.91667 7.99875 8.1206C7.6075 8.16718 6.75563 8.17096 5.99438 8.97349C5.395 9.58467 5.2 10.9726 5.2 10.9726C5.2 10.9726 5 12.6028 5 14.2324V15.7607C5 17.3909 5.2 19.0205 5.2 19.0205C5.2 19.0205 5.395 20.4084 5.99438 21.0196C6.75563 21.8221 7.755 21.7969 8.2 21.8807C9.8 22.0355 15 22.0833 15 22.0833C15 22.0833 19.2025 22.077 22.0013 21.8731C22.3919 21.8259 23.2444 21.8221 24.005 21.0196C24.6044 20.4084 24.8 19.0205 24.8 19.0205C24.8 19.0205 25 17.3909 25 15.7607V14.2324C25 12.6028 24.8 10.9726 24.8 10.9726Z" fill="white"/>
</svg>
