<svg width="24" height="24" viewBox="0 0 24 24" fill="none" xmlns="http://www.w3.org/2000/svg">
  <path fill-rule="evenodd" clip-rule="evenodd" d="M12 22.8C17.9647 22.8 22.8 17.9647 22.8 12C22.8 6.03533 17.9647 1.2 12 1.2C6.03533 1.2 1.2 6.03533 1.2 12C1.2 17.9647 6.03533 22.8 12 22.8ZM12 24C18.6274 24 24 18.6274 24 12C24 5.37259 18.6274 0 12 0C5.37259 0 0 5.37259 0 12C0 18.6274 5.37259 24 12 24Z" fill="#EAAC08"/>
  <path d="M12 22.032C17.5405 22.032 22.032 17.5405 22.032 12C22.032 6.45949 17.5405 1.968 12 1.968C6.45949 1.968 1.968 6.45949 1.968 12C1.968 17.5405 6.45949 22.032 12 22.032Z" fill="url(#usd1Base)"/>
  <path d="M2.21664 14.2297L6.62921 11.7211L2.0341 10.8418C2.28266 8.67945 3.21878 6.72623 4.61827 5.20635C5.72629 5.81659 6.83434 6.42701 7.94235 7.03736C9.29741 7.78391 10.6525 8.53043 12.0075 9.27649L17.7855 12.4579L18.0019 12.5774C18.2372 12.7575 18.3794 13.0637 18.3684 13.3944C19.1676 13.6646 19.5182 14.7207 19.3287 15.6311C19.0017 15.0645 18.4757 14.6731 17.8755 14.5586C16.9641 14.5848 16.0559 14.4259 15.1935 14.0919C13.9282 13.9102 12.9174 14.1624 12.0091 14.6568C10.8931 15.2652 9.65629 16.4258 8.5377 17.4756C8.18708 17.8046 7.84804 18.1228 7.52797 18.4096C6.92321 18.9084 6.12765 19.2668 5.30467 19.471C4.97602 19.1762 4.66691 18.8601 4.37955 18.5249L7.14889 16.1321C7.27845 16.0191 7.30369 15.8095 7.20259 15.6638C7.1031 15.5181 6.91511 15.4902 6.78555 15.6032L3.98003 18.0277C3.60698 17.5322 3.27879 17.0009 3.00151 16.44L3.70392 15.9503C3.84292 15.8521 3.88556 15.6474 3.79867 15.4902C3.71181 15.3347 3.52701 15.2872 3.38801 15.3838L2.73013 15.8424C2.51553 15.3252 2.34295 14.7863 2.21664 14.2297Z" fill="#CA8404"/>
  <path d="M21.2923 8.2125C21.5647 8.87992 21.7672 9.58316 21.8908 10.3133C20.2534 10.6062 18.622 10.8978 16.9215 11.238L11.4437 8.25319L18.0461 4.65593C18.2158 4.56349 18.3802 4.47611 18.5409 4.39335C19.5529 5.26436 20.3892 6.3339 20.9892 7.54147L20.0016 7.72102C19.831 7.7505 19.7141 7.93388 19.741 8.13034C19.7662 8.32684 19.9258 8.45947 20.0964 8.43L21.2923 8.2125Z" fill="#CA8404"/>
  <path d="M12.768 5.04V18.528H11.1744V7.86098C11.1783 7.85809 11.1706 7.86383 11.1744 7.86098V7.19902C11.1111 7.25089 11.0467 7.30178 10.9824 7.35218C10.5216 7.71218 10.0546 8.00111 9.5808 8.21951C9.13537 8.41249 8.68942 8.50942 8.244 8.50942C8.22 8.50942 8.196 8.50943 8.172 8.50849C8.16817 8.50898 8.16382 8.50849 8.16 8.50849V7.0248C8.1768 7.02622 8.19409 7.02623 8.21137 7.02623C8.46911 7.02623 8.77249 6.93551 9.12 6.75502C9.49151 6.56257 9.87551 6.312 10.272 6.00338C10.669 5.6952 11.0146 5.37409 11.3088 5.04H12.768Z" fill="url(#usd1One)"/>
  <defs>
    <linearGradient id="usd1Base" x1="12" y1="1.968" x2="12" y2="22.032" gradientUnits="userSpaceOnUse">
      <stop stop-color="#CA8404"/>
      <stop offset="1" stop-color="#A15D07"/>
    </linearGradient>
    <linearGradient id="usd1One" x1="10.464" y1="5.04" x2="10.464" y2="18.528" gradientUnits="userSpaceOnUse">
      <stop stop-color="#FEF7C3"/>
      <stop offset="1" stop-color="#FDDA47"/>
    </linearGradient>
  </defs>
</svg>
